<svg id="phone-screen" version="1.1" viewBox="0 0 180 84" xmlns:xlink="http://www.w3.org/1999/xlink"
  xmlns="http://www.w3.org/2000/svg" preserveAspectRatio="none">
  <defs id="defs2">
    <clipPath clipPathUnits="userSpaceOnUse" id="clipPath4960">
      <path style="marker: none"
        d="M56.7344 2.0137c-29.6786 0-53.5723 23.8937-53.5723 53.5722v610.4434c0 29.6785 23.8937 53.5722 53.5723 53.5722h246.5312c29.6786 0 53.5723-23.8937 53.5723-53.5722V55.5859c0-29.6785-23.8937-53.5722-53.5723-53.5722zm-1.4238 3.9785h249.3788c26.5822 0 47.9825 21.3983 47.9825 47.9805v614.2362c0 26.5822-21.4003 47.9825-47.9825 47.9825H55.3106c-26.5822 0-47.9825-21.4003-47.9825-47.9825V53.9727c0-26.5822 21.4003-47.9805 47.9825-47.9805z"
        id="path4962" color="#000" display="inline" overflow="visible" visibility="visible" opacity="1"
        vector-effect="none" fill="#ebebeb" fill-opacity="1" fill-rule="nonzero" stroke="none" stroke-width="1.2765"
        stroke-linecap="round" stroke-linejoin="miter" stroke-miterlimit="4" stroke-dasharray="none"
        stroke-dashoffset="0" stroke-opacity="1" enable-background="accumulate"></path>
    </clipPath>
    <clipPath clipPathUnits="userSpaceOnUse" id="clipPath5059">
      <path style="marker: none"
        d="M56.7344 2.0137c-29.6786 0-53.5723 23.8937-53.5723 53.5722v610.4434c0 29.6785 23.8937 53.5722 53.5723 53.5722h246.5312c29.6786 0 53.5723-23.8937 53.5723-53.5722V55.5859c0-29.6785-23.8937-53.5722-53.5723-53.5722zm-1.4238 3.9785h249.3788c26.5822 0 47.9825 21.3983 47.9825 47.9805v614.2362c0 26.5822-21.4003 47.9825-47.9824 47.9825H55.3105c-26.5821 0-47.9824-21.4003-47.9824-47.9825V53.9727c0-26.5822 21.4003-47.9805 47.9825-47.9805z"
        id="path5061" color="#000" display="inline" overflow="visible" visibility="visible" opacity="1"
        vector-effect="none" fill="#ebebeb" fill-opacity="1" fill-rule="nonzero" stroke="none" stroke-width="1.2765"
        stroke-linecap="round" stroke-linejoin="miter" stroke-miterlimit="4" stroke-dasharray="none"
        stroke-dashoffset="0" stroke-opacity="1" enable-background="accumulate"></path>
    </clipPath>
    <clipPath clipPathUnits="userSpaceOnUse" id="clipPath5401">
      <rect style="marker: none" id="rect5403" width="4.3765" height="7.4167" x="-13.8777" y="25.8566" ry=".451"
        color="#000" display="inline" overflow="visible" visibility="visible" opacity="1" vector-effect="none"
        fill="#000" fill-opacity="1" fill-rule="nonzero" stroke="none" stroke-width=".0265" stroke-linecap="round"
        stroke-linejoin="miter" stroke-miterlimit="4" stroke-dasharray="none" stroke-dashoffset="0" stroke-opacity="1"
        enable-background="accumulate"></rect>
    </clipPath>
    <clipPath clipPathUnits="userSpaceOnUse" id="clipPath5589">
      <path id="path5591"
        d="M.4511 39.688A.4498.4498 0 000 40.1386v12.9126c0 .25.2013.4512.4511.4512h3.4742a.4502.4502 0 00.4512-.4512V40.1386a.4498.4498 0 00-.4512-.4506z"
        style="marker: none" color="#000" display="inline" overflow="visible" visibility="visible" opacity="1"
        vector-effect="none" fill="#000" fill-opacity="1" fill-rule="nonzero" stroke="none" stroke-width=".0265"
        stroke-linecap="round" stroke-linejoin="miter" stroke-miterlimit="4" stroke-dasharray="none"
        stroke-dashoffset="0" stroke-opacity="1" enable-background="accumulate"></path>
    </clipPath>
    <clipPath clipPathUnits="userSpaceOnUse" id="clipPath5589-7">
      <path id="path5591-5"
        d="M.4511 39.688A.4498.4498 0 000 40.1386v12.9126c0 .25.2013.4512.4511.4512h3.4742a.4502.4502 0 00.4512-.4512V40.1386a.4498.4498 0 00-.4512-.4506z"
        style="marker: none" color="#000" display="inline" overflow="visible" visibility="visible" opacity="1"
        vector-effect="none" fill="#000" fill-opacity="1" fill-rule="nonzero" stroke="none" stroke-width=".0265"
        stroke-linecap="round" stroke-linejoin="miter" stroke-miterlimit="4" stroke-dasharray="none"
        stroke-dashoffset="0" stroke-opacity="1" enable-background="accumulate"></path>
    </clipPath>
    <clipPath clipPathUnits="userSpaceOnUse" id="clipPath5738">
      <path id="path5740"
        d="M.4511 39.688A.4498.4498 0 000 40.1386v20.9446c0 .25.2013.4512.4511.4512h3.4742a.4502.4502 0 00.4512-.4512V40.1386a.4498.4498 0 00-.4512-.4506z"
        style="marker: none" color="#000" display="inline" overflow="visible" visibility="visible" opacity="1"
        vector-effect="none" fill="#000" fill-opacity="1" fill-rule="nonzero" stroke="none" stroke-width=".0265"
        stroke-linecap="round" stroke-linejoin="miter" stroke-miterlimit="4" stroke-dasharray="none"
        stroke-dashoffset="0" stroke-opacity="1" enable-background="accumulate"></path>
    </clipPath>
    <linearGradient id="linearGradient12877">
      <stop offset="0" id="stop12873" stop-color="#000" stop-opacity="1"></stop>
      <stop offset="1" id="stop12875" stop-color="#fff" stop-opacity=".4365"></stop>
    </linearGradient>
    <linearGradient id="linearGradient821">
      <stop offset="0" id="stop817" stop-color="#000" stop-opacity="1"></stop>
      <stop offset="1" id="stop819" stop-color="#000" stop-opacity="0"></stop>
    </linearGradient>
    <linearGradient xlink:href="#linearGradient821" id="linearGradient11647" x1="18.8334" y1="75.3473" x2="187.9968"
      y2="75.3473" gradientUnits="userSpaceOnUse" gradientTransform="matrix(.98878 0 0 .99219 .2108 .9123)">
    </linearGradient>
    <linearGradient xlink:href="#linearGradient12877" id="linearGradient12879" x1="160.5759" y1="106.2285" x2="94.0069"
      y2="70.5449" gradientUnits="userSpaceOnUse" gradientTransform="matrix(.98878 0 0 .99219 .2108 .9123)">
    </linearGradient>
    <filter id="filter5343" x="-.1923" width="1.3846" y="-.0825" height="1.1649" color-interpolation-filters="sRGB">
      <feGaussianBlur stdDeviation=".031" id="feGaussianBlur5345"></feGaussianBlur>
    </filter>
    <filter id="filter5347" x="-.1088" width="1.2176" y="-.0823" height="1.1646" color-interpolation-filters="sRGB">
      <feGaussianBlur stdDeviation=".031" id="feGaussianBlur5349"></feGaussianBlur>
    </filter>
  </defs>
  <g id="layer1" transform="translate(-12.4416 -33.9948)">
    <g style="mix-blend-mode: screen" id="g20462" transform="matrix(0 -.2374 .29138 0 18.6343 44.4748)" opacity="1"
      fill="#000" fill-opacity="0" stroke="#00dc00" stroke-width="2" stroke-linecap="round" stroke-linejoin="round"
      stroke-opacity=".9069">
      <path d="M5 12.55a11 11 0 0114.08 0" id="path20444"></path>
      <path d="M1.42 9c2.8123-2.479 6.278-3.8049 9.7893-3.9779C15.2473 4.8231 19.3458 6.1491 22.58 9" id="path20446"
        style="mix-blend-mode: lighten"></path>
      <path d="M8.53 16.11a6 6 0 016.95 0" id="path20448"></path>
      <path id="line20450" d="M12 20h.01"></path>
    </g>
    <g id="g5823" transform="matrix(0 -1 1.03489 0 13.133 122.9723)" stroke="none" stroke-linejoin="miter"
      stroke-miterlimit="4" stroke-dasharray="none" stroke-opacity="1">
      <rect ry=".7205" y="7.2619" x="42.0262" height="1.441" width="11.3629" id="rect5261" style="marker: none"
        color="#000" display="inline" overflow="visible" visibility="visible" opacity="1" vector-effect="none"
        fill="#1e1e1e" fill-opacity="1" fill-rule="nonzero" stroke-width=".2646" stroke-linecap="round"
        stroke-dashoffset="0" enable-background="accumulate"></rect>
      <circle r="1.3447" cy="7.8897" cx="57.9149" id="path5263" style="marker: none" color="#000" display="inline"
        overflow="visible" visibility="visible" opacity="1" vector-effect="none" fill="#2b2b2b" fill-opacity="1"
        fill-rule="nonzero" stroke-width=".0265" stroke-linecap="round" stroke-dashoffset="0"
        enable-background="accumulate"></circle>
      <circle r="1.0774" cy="7.8897" cx="57.9149" id="path5265" style="marker: none" color="#000" display="inline"
        overflow="visible" visibility="visible" opacity="1" vector-effect="none" fill="#0a0d13" fill-opacity="1"
        fill-rule="nonzero" stroke-width=".0265" stroke-linecap="round" stroke-dashoffset="0"
        enable-background="accumulate"></circle>
      <circle r=".8209" cy="7.8897" cx="57.9149" id="path5267" style="marker: none" color="#000" display="inline"
        overflow="visible" visibility="visible" opacity="1" vector-effect="none" fill="#091427" fill-opacity="1"
        fill-rule="nonzero" stroke-width=".0265" stroke-linecap="round" stroke-dashoffset="0"
        enable-background="accumulate"></circle>
      <path id="path5271"
        d="M57.3498 7.3405c-.0974.0103-.2357.1588-.246.4509-.0102.292.1179.4508.1896.4508.0717 0 .369-.4252.0564-.9017z"
        fill="#235a91" fill-opacity=".5561" fill-rule="evenodd" stroke-width=".0265" stroke-linecap="butt"
        filter="url(#filter5343)"></path>
      <path id="path5273"
        d="M58.0489 7.2382c-.1536.0473-.1831.2953-.1772.437.0059.1418.2067.5139.4488.4312.2422-.0827.2835-.3898.1831-.5965-.1004-.2067-.2835-.3543-.4547-.2717z"
        fill="#235a91" fill-opacity=".5561" fill-rule="evenodd" stroke-width=".0265" stroke-linecap="butt"
        filter="url(#filter5347)"></path>
      <path id="path5267-7" style="marker: none"
        d="M40.2408 8.0137a1.0572 1.0572 0 01-1.0532 1.0571 1.0572 1.0572 0 01-1.061-1.0494 1.0572 1.0572 0 011.0454-1.0648 1.0572 1.0572 0 011.0687 1.0415l-1.057.0156z"
        color="#000" display="inline" overflow="visible" visibility="visible" opacity="1" vector-effect="none"
        fill="#0f0f0f" fill-opacity="1" fill-rule="nonzero" stroke-width=".0265" stroke-linecap="round"
        stroke-dashoffset="0" enable-background="accumulate"></path>
      <path id="path5267-7-9" style="marker: none"
        d="M34.2458 8.0385a1.5946 1.5693 0 01-1.5887 1.5693A1.5946 1.5693 0 0131.0567 8.05a1.5946 1.5693 0 011.577-1.5807 1.5946 1.5693 0 011.612 1.546l-1.5945.0232z"
        color="#000" display="inline" overflow="visible" visibility="visible" opacity="1" vector-effect="none"
        fill="#101010" fill-opacity="1" fill-rule="nonzero" stroke-width=".031" stroke-linecap="round"
        stroke-dashoffset="0" enable-background="accumulate"></path>
    </g>
    <path id="path5267-7-7" style="marker: none"
      d="M-56.5744 21.2769a2.133 2.1831 0 01-2.125 2.1831 2.133 2.1831 0 01-2.1408-2.167 2.133 2.1831 0 012.1093-2.1991 2.133 2.1831 0 012.1563 2.1509l-2.1327.032z"
      transform="rotate(-90)" color="#000" display="inline" overflow="visible" visibility="visible" opacity="1"
      vector-effect="none" fill="#0f0f0f" fill-opacity="1" fill-rule="nonzero" stroke="none" stroke-width=".0531"
      stroke-linecap="round" stroke-linejoin="miter" stroke-miterlimit="4" stroke-dasharray="none" stroke-dashoffset="0"
      stroke-opacity="1" enable-background="accumulate"></path>
    <path style="mix-blend-mode: screen; marker: none"
      d="M18.833 108.2808c0 4.6644 3.5323 8.4195 7.92 8.4195h151.4253c2.0558 0 4.7584.0196 6.1633-1.3364 1.5936-1.5381 1.7567-4.6042 1.7567-7.0831V43.061c0-4.6645-3.5323-8.4195-7.92-8.4195H26.753c-4.3877 0-7.92 3.755-7.92 8.4195v8.2359c0 .7767.5923 1.4063 1.323 1.4064h.6091c2.3839 0 4.3032 2.0399 4.3032 4.574v36.7872c0 2.5342-1.9193 4.574-4.3032 4.574h-.6091c-.7307 0-1.323.6297-1.323 1.4064z"
      id="rect5872" color="#000" display="inline" overflow="visible" visibility="visible" opacity=".32"
      vector-effect="none" fill="url(#linearGradient12879)" fill-opacity="1" fill-rule="nonzero"
      stroke="url(#linearGradient11647)" stroke-width=".1701" stroke-linecap="round" stroke-linejoin="miter"
      stroke-miterlimit="4" stroke-dasharray="none" stroke-dashoffset="0" stroke-opacity=".9529"
      enable-background="accumulate"></path>
    <g id="g44018" transform="matrix(0 -.31414 .21066 0 19.635 50.9223)" fill="none" stroke="#0049ff" stroke-width="2"
      stroke-linecap="round" stroke-linejoin="round" stroke-opacity="1">
      <path id="polyline44009" stroke="#0049ff" stroke-opacity="1" d="M6.5 6.5l11 11L12 23V1l5.5 5.5-11 11"></path>
    </g>
  </g>
</svg>