<svg width="97" height="63" viewBox="0 0 97 63" fill="none" xmlns="http://www.w3.org/2000/svg">
<g id="TLIconPlainFigma 1" clip-path="url(#clip0)">
<g id="TLIconPlain 1" filter="url(#filter0_d)">
<g id="letters">
<g id="char-l-group">
<path id="char-l-top" d="M55.789 12.6619C55.6282 12.6619 55.4674 12.6672 55.3073 12.6781C55.147 12.6889 54.9873 12.7052 54.8288 12.7267C54.6704 12.7483 54.5132 12.7752 54.3577 12.8074C54.2024 12.8395 54.0488 12.8769 53.8976 12.9194C53.7464 12.9618 53.5976 13.0094 53.4518 13.0619C53.3059 13.1144 53.1631 13.1718 53.0238 13.234C52.8844 13.2961 52.7486 13.3629 52.6167 13.4341C52.4849 13.5054 52.3572 13.5811 52.2339 13.6609C52.1107 13.7407 51.992 13.8247 51.8783 13.9126C51.7644 14.0005 51.6557 14.0921 51.5522 14.1873C51.4488 14.2824 51.3508 14.381 51.2584 14.4828C51.1662 14.5845 51.0797 14.6894 50.9992 14.797C50.9188 14.9045 50.8444 15.0148 50.7765 15.1274C50.7084 15.24 50.6468 15.3548 50.5917 15.4716C50.5366 15.5883 50.4882 15.7069 50.4466 15.8269C50.4049 15.9469 50.37 16.0683 50.3421 16.1906C50.3142 16.313 50.2931 16.4362 50.2791 16.56C50.2652 16.6837 50.2581 16.8079 50.2582 16.9321C50.2581 17.0564 50.2652 17.1805 50.2791 17.3043C50.2795 17.3062 50.2798 17.3081 50.2801 17.31C50.2661 17.4094 50.2582 17.5107 50.2582 17.6137V29.3793C50.2582 30.6389 51.3393 31.6531 52.6824 31.6531H53.1076H53.3649C54.7078 31.6531 55.7891 30.6389 55.7891 29.3793V17.6137C55.7891 17.5809 55.7879 17.5484 55.7864 17.5161H55.7891L55.789 12.6619Z" fill="url(#paint0_linear)" stroke="black" stroke-width="0.01" stroke-linejoin="round"/>
<path id="char-l-base" d="M53.2361 31.6531C51.5846 31.6531 50.2549 30.8204 50.2549 29.7861V29.4586V29.2605C50.2549 28.2262 51.5846 27.3936 53.2361 27.3936H54.0755H61.0517C61.0747 27.3936 61.0976 27.3944 61.1204 27.3956V27.3936H64.5311C64.531 27.5174 64.5272 27.6412 64.5195 27.7645C64.512 27.888 64.5006 28.0109 64.4855 28.133C64.4703 28.255 64.4514 28.3761 64.4289 28.4958C64.4062 28.6155 64.38 28.7338 64.3501 28.8501C64.3202 28.9667 64.2868 29.0812 64.25 29.1935C64.213 29.3059 64.1727 29.4159 64.1291 29.5232C64.0854 29.6305 64.0385 29.7351 63.9884 29.8366C63.9384 29.9381 63.8852 30.0365 63.8291 30.1313C63.773 30.2263 63.714 30.3177 63.6522 30.4053C63.5905 30.493 63.5261 30.5768 63.4592 30.6564C63.3924 30.7361 63.323 30.8116 63.2515 30.8827C63.18 30.9537 63.1064 31.0203 63.0309 31.0823C62.9553 31.1443 62.8778 31.2015 62.7987 31.2539C62.7195 31.3063 62.6388 31.3537 62.5567 31.3961C62.4747 31.4385 62.3915 31.4758 62.3072 31.5079C62.2228 31.5399 62.1376 31.5668 62.0517 31.5884C61.9656 31.6099 61.8791 31.626 61.7921 31.6368C61.7052 31.6476 61.6179 31.653 61.5306 31.653C61.4433 31.6531 61.356 31.6476 61.2691 31.6368C61.2677 31.6366 61.2665 31.6363 61.2651 31.6361C61.1953 31.6469 61.1241 31.653 61.0517 31.653L57.0566 31.6531H54.8323H53.2361Z" fill="url(#paint1_linear)" stroke="black" stroke-width="0.05" stroke-linejoin="round"/>
</g>
<path id="char-period" d="M48.3624 32.1776C49.2764 32.1776 50.0173 31.4785 50.0173 30.6161C50.0173 29.7537 49.2764 29.0546 48.3624 29.0546C47.4484 29.0546 46.7075 29.7537 46.7075 30.6161C46.7075 31.4785 47.4484 32.1776 48.3624 32.1776Z" fill="url(#paint2_linear)" stroke="black" stroke-width="0.05" stroke-linejoin="round"/>
<g id="char-t-group">
<path id="char-t-base" d="M46.2199 10.8876C45.9782 10.8877 45.7366 10.894 45.4958 10.9065C45.2549 10.919 45.0149 10.9378 44.7767 10.9627C44.5386 10.9876 44.3023 11.0188 44.0687 11.0559C43.8352 11.0931 43.6043 11.1363 43.3771 11.1854C43.1499 11.2346 42.9262 11.2896 42.707 11.3503C42.4878 11.411 42.2732 11.4774 42.0637 11.5492C41.8542 11.6211 41.6501 11.6984 41.452 11.7808C41.2539 11.8632 41.062 11.9506 40.8767 12.043C40.6914 12.1354 40.513 12.2325 40.342 12.3341C40.171 12.4357 40.0075 12.5416 39.852 12.6517C39.6965 12.7617 39.5492 12.8757 39.4105 12.9934C39.2717 13.1111 39.1418 13.2323 39.0208 13.3567C38.8999 13.4812 38.7882 13.6087 38.6859 13.7389C38.5837 13.8691 38.4911 14.0019 38.4083 14.1369C38.3256 14.2719 38.2528 14.409 38.1902 14.5478C38.1276 14.6865 38.0752 14.8269 38.0332 14.9684C37.9912 15.1098 37.9596 15.2524 37.9385 15.3955C37.9175 15.5386 37.9069 15.6822 37.907 15.8258C37.9069 15.9695 37.9175 16.1131 37.9385 16.2563C37.939 16.2585 37.9395 16.2607 37.94 16.2629C37.9189 16.3778 37.907 16.4949 37.907 16.6141V30.22C37.907 31.6767 39.532 32.8495 41.5506 32.8495H42.1897H42.5764C44.5949 32.8495 46.2199 31.6767 46.2199 30.22V16.6141C46.2199 16.5762 46.2181 16.5386 46.2159 16.5011H46.2199V10.8876Z" fill="url(#paint3_linear)" stroke="black" stroke-width="0.04" stroke-linejoin="round"/>
<path id="char-t-right" d="M46.3445 3.06946C46.1341 3.06946 45.9239 3.07697 45.7142 3.09208C45.5045 3.1072 45.2954 3.12974 45.0875 3.15979C44.8796 3.18993 44.6729 3.22741 44.4678 3.27232C44.2635 3.31706 44.061 3.36914 43.8608 3.42831C43.86 3.42857 43.8594 3.42874 43.8587 3.42891C43.6577 3.48842 43.4591 3.5551 43.2633 3.62878C43.0675 3.70255 42.8748 3.78323 42.6853 3.87083C42.4958 3.95835 42.3099 4.05269 42.1277 4.15361C41.9456 4.25453 41.7675 4.36194 41.5938 4.47558C41.42 4.58922 41.2507 4.70909 41.0863 4.83486C40.9219 4.96071 40.7624 5.09236 40.6082 5.22957C40.4541 5.36686 40.3053 5.50961 40.1622 5.65758C40.0192 5.80546 39.882 5.95846 39.7509 6.11624C39.6198 6.27402 39.4948 6.43641 39.3764 6.60316C39.258 6.76991 39.146 6.94084 39.0409 7.11561C38.9357 7.2903 38.8374 7.46874 38.7461 7.6506C38.6549 7.83237 38.5707 8.01731 38.4939 8.20514C38.4172 8.39298 38.3477 8.58354 38.2857 8.77633C38.2237 8.96921 38.1692 9.16421 38.1224 9.36093C38.0756 9.55764 38.0365 9.75598 38.0052 9.95551C37.9738 10.155 37.9502 10.3556 37.9345 10.5568C37.9209 10.7396 37.9138 10.9226 37.9132 11.1057H37.9087V18.9824L37.9138 18.9794C37.917 18.7921 37.9269 18.6049 37.9436 18.4183C37.965 18.1837 37.997 17.9502 38.0396 17.7183C38.0822 17.4865 38.1354 17.2565 38.1989 17.0291C38.2624 16.8017 38.3362 16.5771 38.4202 16.3559C38.5041 16.1346 38.5981 15.9171 38.7017 15.7037C38.8054 15.4903 38.9188 15.2813 39.0414 15.0774C39.1641 14.8736 39.296 14.6749 39.4367 14.4821C39.5774 14.2892 39.7269 14.1024 39.8846 13.922C40.0423 13.7417 40.2082 13.568 40.3817 13.4016C40.5551 13.2351 40.7361 13.076 40.9241 12.9246C41.112 12.7733 41.3068 12.6299 41.5077 12.4949C41.7087 12.3598 41.9158 12.2333 42.1282 12.1155C42.3407 11.9978 42.5585 11.889 42.7808 11.7896C43.0032 11.69 43.23 11.5999 43.4606 11.5194C43.6912 11.4389 43.9252 11.368 44.1623 11.3072C44.3992 11.2462 44.6389 11.1952 44.8805 11.1543C45.0191 11.1334 45.1583 11.1158 45.2979 11.1017C45.6449 11.0574 45.9944 11.0339 46.3445 11.0314C46.3446 11.0314 46.3448 11.0314 46.345 11.0314C46.7249 11.0316 47.1044 11.0564 47.4808 11.1057H52.3003C53.2115 11.1057 54.0518 10.8233 54.7348 10.3448C55.7751 9.61604 56.4502 8.43131 56.4502 7.0876C56.4502 4.8615 54.5993 3.06946 52.3003 3.06946H46.3445Z" fill="url(#paint4_linear)" stroke="black" stroke-width="0.05"/>
<path id="char-t-left" d="M30.5901 2.45172C28.2911 2.45172 26.4403 4.24367 26.4403 6.46953C26.4403 8.69546 28.2911 10.4874 30.5901 10.4874H36.885C36.8857 10.3043 36.8929 10.1212 36.9065 9.93859C36.9222 9.73735 36.9457 9.5368 36.9771 9.33735C37.0084 9.13782 37.0475 8.93948 37.0943 8.74276C37.1412 8.54605 37.1956 8.35104 37.2576 8.15825C37.3195 7.96538 37.389 7.7749 37.4658 7.58706C37.5427 7.39923 37.6268 7.21429 37.7181 7.03252C37.8093 6.85075 37.9076 6.6723 38.0127 6.49753C38.1179 6.32276 38.2298 6.15191 38.3483 5.98517C38.4668 5.81842 38.5917 5.65603 38.7228 5.49833C38.8539 5.34055 38.9911 5.18755 39.1342 5.03958C39.2772 4.89171 39.4259 4.74895 39.5801 4.61166C39.7343 4.47446 39.8938 4.3428 40.0582 4.21704C40.2226 4.09127 40.3919 3.9714 40.5656 3.85776C40.7394 3.74403 40.9175 3.63671 41.0997 3.53579C41.2818 3.43487 41.4678 3.34053 41.6572 3.25301C41.8466 3.1655 42.0395 3.08473 42.2353 3.01104C42.431 2.93728 42.6296 2.87059 42.8306 2.81117C43.0316 2.75166 43.2347 2.69949 43.4397 2.65458C43.6448 2.60967 43.8515 2.57211 44.0594 2.54205C44.2674 2.512 44.4764 2.48937 44.6861 2.47435C44.8959 2.45923 45.1061 2.45172 45.3164 2.45172H30.5901Z" fill="url(#paint5_linear)" stroke="black" stroke-width="0.05" stroke-linejoin="round"/>
</g>
</g>
<g id="code">
<g id="brackets">
<g id="bracket-left">
<g id="bracket-left-inner">
<g id="g28">
<path id="path42" d="M5.3549 28.7992C5.96643 30.8148 8.15021 31.7132 10.2321 30.8056C12.3135 29.8988 13.5053 27.5289 12.8935 25.5138L8.14955 9.88506C7.53757 7.86955 5.35402 6.97094 3.27231 7.87861C1.19081 8.78572 -0.000906653 11.1559 0.610846 13.1713L3.42529 22.3994L5.3549 28.7992Z" fill="url(#paint6_radial)" stroke="black" stroke-width="0.01"/>
</g>
</g>
<g id="bracket-left-outer">
<g id="g46">
<path id="path60" d="M23.606 3.34032C22.9994 1.34266 20.8381 0.451843 18.7791 1.34959L2.81154 8.31337C0.795365 9.1923 -0.399231 11.3772 0.122151 13.3464L0.144259 13.4294L0.175524 13.5324C0.177835 13.54 0.179122 13.548 0.181433 13.5557C0.183821 13.5641 0.187607 13.5715 0.189995 13.58L2.96808 22.7084C1.47436 17.7889 8.73368 13.9221 8.73368 13.9221L8.73269 13.922L20.9756 8.58331C23.0343 7.68481 24.2125 5.33764 23.606 3.34032Z" fill="url(#paint7_linear)" stroke="black" stroke-width="0.01"/>
</g>
</g>
</g>
<g id="bracket-right">
<g id="bracket-r-inner">
<g id="g64">
<path id="path78" d="M89.3513 33.1813C88.7395 31.1657 86.556 30.2672 84.4741 31.1742C82.3926 32.0814 81.2006 34.451 81.8118 36.4664L86.5538 52.0957C87.1656 54.1112 89.349 55.0099 91.4305 54.1024C93.5127 53.1955 94.7043 50.8257 94.093 48.8099L91.2795 39.5813L89.3513 33.1813Z" fill="url(#paint8_linear)" stroke="black" stroke-width="0.01"/>
</g>
</g>
<g id="bracket-r-outer">
<g id="g82">
<path id="path96" d="M71.1473 58.6597C71.754 60.6571 73.915 61.5481 75.9744 60.6505L91.9419 53.6865C93.9581 52.8073 95.1533 50.6225 94.6315 48.6535L94.6095 48.5702L94.5783 48.4672C94.5761 48.4594 94.5749 48.4517 94.5721 48.4439C94.5702 48.4356 94.5659 48.428 94.5634 48.4197L91.7855 39.2909C93.2797 44.2107 86.0199 48.0779 86.0199 48.0779L86.0208 48.0776L73.7779 53.4172C71.7188 54.3149 70.541 56.6627 71.1473 58.6597Z" fill="url(#paint9_linear)" stroke="black" stroke-width="0.01"/>
</g>
</g>
</g>
</g>
<path id="back-slash" d="M44.8553 56.1024C42.6238 57.7482 42.2376 56.9218 43.9935 54.255C45.7486 51.5895 48.981 48.0936 51.2123 46.4478L94.163 14.8973C96.3944 13.2517 96.7806 14.0786 95.0249 16.7449C93.2698 19.4104 90.037 22.9068 87.8057 24.5526L44.8553 56.1024Z" fill="#E3DBDB" fill-opacity="0.6996" stroke="black" stroke-width="0.01"/>
</g>
</g>
</g>
<defs>
<filter id="filter0_d" x="-4.005" y="-273.724" width="355.034" height="346.731" filterUnits="userSpaceOnUse" color-interpolation-filters="sRGB">
<feFlood flood-opacity="0" result="BackgroundImageFix"/>
<feColorMatrix in="SourceAlpha" type="matrix" values="0 0 0 0 0 0 0 0 0 0 0 0 0 0 0 0 0 0 127 0" result="hardAlpha"/>
<feOffset dy="4"/>
<feGaussianBlur stdDeviation="2"/>
<feComposite in2="hardAlpha" operator="out"/>
<feColorMatrix type="matrix" values="0 0 0 0 0 0 0 0 0 0 0 0 0 0 0 0 0 0 0.25 0"/>
<feBlend mode="normal" in2="BackgroundImageFix" result="effect1_dropShadow"/>
<feBlend mode="normal" in="SourceGraphic" in2="effect1_dropShadow" result="shape"/>
</filter>
<linearGradient id="paint0_linear" x1="61.7922" y1="31.6369" x2="54.285" y2="15.7151" gradientUnits="userSpaceOnUse">
<stop stop-color="#A21554"/>
<stop offset="0.39375" stop-color="#A21554"/>
<stop offset="1" stop-color="#F28114"/>
</linearGradient>
<linearGradient id="paint1_linear" x1="18.2779" y1="41.6252" x2="16.0764" y2="30.6377" gradientUnits="userSpaceOnUse">
<stop stop-color="#A21554"/>
<stop offset="0.00955605" stop-color="#A21554"/>
<stop offset="1" stop-color="#F28114"/>
</linearGradient>
<linearGradient id="paint2_linear" x1="46.6938" y1="30.6161" x2="50.031" y2="30.6161" gradientUnits="userSpaceOnUse">
<stop stop-color="#FF7A00"/>
<stop offset="1" stop-color="#E04200"/>
</linearGradient>
<linearGradient id="paint3_linear" x1="46.2199" y1="23.417" x2="41.1945" y2="12.7962" gradientUnits="userSpaceOnUse">
<stop stop-color="#FF6900"/>
<stop offset="1" stop-color="#A24200"/>
</linearGradient>
<linearGradient id="paint4_linear" x1="54.7348" y1="10.3448" x2="56.364" y2="7.04502" gradientUnits="userSpaceOnUse">
<stop stop-color="#FF6900"/>
<stop offset="1" stop-color="#E24200"/>
</linearGradient>
<linearGradient id="paint5_linear" x1="33.8399" y1="6.02973" x2="37.8341" y2="2.32329" gradientUnits="userSpaceOnUse">
<stop stop-color="#FF7A00"/>
<stop offset="1" stop-color="#E04200"/>
</linearGradient>
<radialGradient id="paint6_radial" cx="0" cy="0" r="1" gradientUnits="userSpaceOnUse" gradientTransform="translate(2.04016 9.43329) rotate(22.3618) scale(20.7299 23.2194)">
<stop stop-color="#04FFAB"/>
<stop offset="0.833333" stop-color="#3771BE"/>
<stop offset="1" stop-color="#3771BE"/>
</radialGradient>
<linearGradient id="paint7_linear" x1="1.89335" y1="7.67016" x2="18.4678" y2="15.9857" gradientUnits="userSpaceOnUse">
<stop stop-color="#3771BE"/>
<stop offset="0.166667" stop-color="#3771BE"/>
<stop offset="1" stop-color="#5FC8A5"/>
</linearGradient>
<linearGradient id="paint8_linear" x1="79.2827" y1="39.0708" x2="95.9847" y2="47.4731" gradientUnits="userSpaceOnUse">
<stop stop-color="#3977C9"/>
<stop offset="0.122917" stop-color="#3771BE"/>
<stop offset="0.570833" stop-color="#5FC8A5"/>
</linearGradient>
<linearGradient id="paint9_linear" x1="79.2676" y1="45.9018" x2="93.0639" y2="50.2465" gradientUnits="userSpaceOnUse">
<stop offset="0.461458" stop-color="#F28114"/>
<stop offset="0.990444" stop-color="#A21554"/>
<stop offset="1" stop-color="#A21554"/>
</linearGradient>
<clipPath id="clip0">
<rect width="97" height="63" fill="white"/>
</clipPath>
</defs>
</svg>
